<?xml version="1.0" encoding="UTF-8" standalone="no"?>
<!-- Created with Inkscape (http://www.inkscape.org/) -->

<svg
   xmlns:dc="http://purl.org/dc/elements/1.1/"
   xmlns:cc="http://creativecommons.org/ns#"
   xmlns:rdf="http://www.w3.org/1999/02/22-rdf-syntax-ns#"
   xmlns:svg="http://www.w3.org/2000/svg"
   xmlns="http://www.w3.org/2000/svg"
   xmlns:sodipodi="http://sodipodi.sourceforge.net/DTD/sodipodi-0.dtd"
   xmlns:inkscape="http://www.inkscape.org/namespaces/inkscape"
   width="519.96808"
   height="243.48401"
   viewBox="0 0 519.96808 243.48401"
   id="svg2"
   version="1.1"
   inkscape:version="0.91 r13725"
   sodipodi:docname="logo.svg">
  <defs
     id="defs4">
    <filter
       id="filter3993"
       inkscape:label="Drop Shadow"
       style="color-interpolation-filters:sRGB">
      <feFlood
         id="feFlood3995"
         flood-opacity="0.5"
         flood-color="rgb(0,0,0)"
         result="flood" />
      <feComposite
         id="feComposite3997"
         in2="SourceGraphic"
         in="flood"
         operator="in"
         result="composite1" />
      <feGaussianBlur
         id="feGaussianBlur3999"
         stdDeviation="20"
         result="blur" />
      <feOffset
         id="feOffset4001"
         dx="4"
         dy="4"
         result="offset" />
      <feComposite
         id="feComposite4003"
         in2="offset"
         in="SourceGraphic"
         operator="over"
         result="composite2" />
    </filter>
    <pattern
       y="0"
       x="0"
       height="6"
       width="6"
       patternUnits="userSpaceOnUse"
       id="EMFhbasepattern" />
    <clipPath
       clipPathUnits="userSpaceOnUse"
       id="clipPath3116">
      <rect
         style="opacity:0.8;fill:#00ff00;fill-opacity:1;stroke:#000000;stroke-width:1.27440369;stroke-miterlimit:4;stroke-dasharray:none;stroke-opacity:1"
         id="rect3118"
         width="1149.7256"
         height="1824.7256"
         x="897.01221"
         y="-5652.3433" />
    </clipPath>
    <filter
       style="color-interpolation-filters:sRGB"
       inkscape:label="Drop Shadow"
       id="filter3699">
      <feFlood
         flood-opacity="0.498039"
         flood-color="rgb(0,0,0)"
         result="flood"
         id="feFlood3701" />
      <feComposite
         in="flood"
         in2="SourceGraphic"
         operator="in"
         result="composite1"
         id="feComposite3703" />
      <feGaussianBlur
         in="composite1"
         stdDeviation="40"
         result="blur"
         id="feGaussianBlur3705" />
      <feOffset
         dx="0"
         dy="0"
         result="offset"
         id="feOffset3707" />
      <feComposite
         in="SourceGraphic"
         in2="offset"
         operator="over"
         result="composite2"
         id="feComposite3709" />
    </filter>
    <clipPath
       clipPathUnits="userSpaceOnUse"
       id="clipPath4099">
      <rect
         style="fill:#ffffff;fill-opacity:1;stroke:none"
         id="rect4101"
         width="850"
         height="674.21875"
         x="325"
         y="-3636.8552" />
    </clipPath>
    <clipPath
       clipPathUnits="userSpaceOnUse"
       id="clipPath3313">
      <rect
         style="fill:#c0f000"
         id="rect3315"
         width="978.90094"
         height="899.35144"
         x="172.35728"
         y="318.18582" />
    </clipPath>
    <filter
       inkscape:label="Drop Shadow"
       id="filter3550"
       style="color-interpolation-filters:sRGB">
      <feFlood
         flood-opacity="0.5"
         flood-color="rgb(0,0,0)"
         result="flood"
         id="feFlood3552" />
      <feComposite
         in="flood"
         in2="SourceGraphic"
         operator="in"
         result="composite1"
         id="feComposite3554" />
      <feGaussianBlur
         stdDeviation="20"
         result="blur"
         id="feGaussianBlur3556" />
      <feOffset
         dx="4"
         dy="4"
         result="offset"
         id="feOffset3558" />
      <feComposite
         in="SourceGraphic"
         in2="offset"
         operator="over"
         result="composite2"
         id="feComposite3560" />
    </filter>
    <clipPath
       clipPathUnits="userSpaceOnUse"
       id="clipPath4099-1">
      <rect
         style="fill:#ffffff;fill-opacity:1;stroke:none"
         id="rect4101-2"
         width="850"
         height="674.21875"
         x="325"
         y="-3636.8552" />
    </clipPath>
    <clipPath
       clipPathUnits="userSpaceOnUse"
       id="clipPath3313-2">
      <rect
         style="fill:#c0f000"
         id="rect3315-1"
         width="978.90094"
         height="899.35144"
         x="172.35728"
         y="318.18582" />
    </clipPath>
    <filter
       style="color-interpolation-filters:sRGB"
       inkscape:label="Drop Shadow"
       id="filter3550-2">
      <feFlood
         flood-opacity="0.5"
         flood-color="rgb(0,0,0)"
         result="flood"
         id="feFlood3552-1" />
      <feComposite
         in="flood"
         in2="SourceGraphic"
         operator="in"
         result="composite1"
         id="feComposite3554-0" />
      <feGaussianBlur
         stdDeviation="20"
         result="blur"
         id="feGaussianBlur3556-8" />
      <feOffset
         dx="4"
         dy="4"
         result="offset"
         id="feOffset3558-9" />
      <feComposite
         in="SourceGraphic"
         in2="offset"
         operator="over"
         result="composite2"
         id="feComposite3560-8" />
    </filter>
    <filter
       style="color-interpolation-filters:sRGB"
       inkscape:label="Drop Shadow"
       id="filter3550-2-6">
      <feFlood
         flood-opacity="0.5"
         flood-color="rgb(0,0,0)"
         result="flood"
         id="feFlood3552-1-5" />
      <feComposite
         in="flood"
         in2="SourceGraphic"
         operator="in"
         result="composite1"
         id="feComposite3554-0-7" />
      <feGaussianBlur
         stdDeviation="20"
         result="blur"
         id="feGaussianBlur3556-8-7" />
      <feOffset
         dx="4"
         dy="4"
         result="offset"
         id="feOffset3558-9-2" />
      <feComposite
         in="SourceGraphic"
         in2="offset"
         operator="over"
         result="composite2"
         id="feComposite3560-8-6" />
    </filter>
    <clipPath
       id="clipPath4558"
       clipPathUnits="userSpaceOnUse">
      <path
         inkscape:connector-curvature="0"
         id="path4560"
         d="M 0,500 1024,500 1024,0 0,0 0,500 Z" />
    </clipPath>
    <clipPath
       id="clipPath4570"
       clipPathUnits="userSpaceOnUse">
      <path
         inkscape:connector-curvature="0"
         id="path4572"
         d="M 0,500 1024,500 1024,0 0,0 0,500 Z" />
    </clipPath>
  </defs>
  <sodipodi:namedview
     id="base"
     pagecolor="#ffffff"
     bordercolor="#666666"
     borderopacity="1.0"
     inkscape:pageopacity="0.0"
     inkscape:pageshadow="2"
     inkscape:zoom="1.979899"
     inkscape:cx="363.9814"
     inkscape:cy="199.45682"
     inkscape:document-units="px"
     inkscape:current-layer="layer2"
     showgrid="false"
     units="px"
     inkscape:window-width="3200"
     inkscape:window-height="1723"
     inkscape:window-x="-9"
     inkscape:window-y="171"
     inkscape:window-maximized="1"
     fit-margin-top="0"
     fit-margin-left="0"
     fit-margin-right="0"
     fit-margin-bottom="0" />
  <metadata
     id="metadata7">
    <rdf:RDF>
      <cc:Work
         rdf:about="">
        <dc:format>image/svg+xml</dc:format>
        <dc:type
           rdf:resource="http://purl.org/dc/dcmitype/StillImage" />
        <dc:title></dc:title>
      </cc:Work>
    </rdf:RDF>
  </metadata>
  <g
     inkscape:label="Layer 1"
     inkscape:groupmode="layer"
     id="layer1"
     transform="translate(-128.4,10825.664)" />
  <g
     inkscape:groupmode="layer"
     id="layer3"
     inkscape:label="Drop shadows"
     style="display:inline"
     transform="translate(-128.4,-121.97436)" />
  <g
     inkscape:groupmode="layer"
     id="layer2"
     inkscape:label="Layer 2"
     style="display:inline"
     transform="translate(-128.4,-121.97436)">
    <path
       transform="matrix(2.8764166,0,0,2.8764166,-310.72127,-1137.5779)"
       sodipodi:type="inkscape:offset"
       inkscape:radius="0"
       inkscape:original="M 157.9375 437.90625 C 156.93747 437.83172 156.05376 438.00299 155.40625 438.4375 C 154.22956 439.2271 153.30721 441.03672 152.96875 443.25 C 152.80785 444.30208 152.73639 455.97324 152.78125 473.59375 L 152.84375 502.1875 L 157.0625 499.125 C 161.34959 495.98781 162.33024 495.03329 162.875 493.40625 C 163.09007 492.76388 163.18606 487.51751 163.1875 475.6875 C 163.1885 466.4559 163.29395 457.87372 163.4375 456.625 C 164.1998 449.99404 167.72641 448.77777 173.90625 452.96875 C 177.68344 455.53033 201.28897 472.81312 202.15625 473.65625 C 204.4579 475.89382 204.81994 477.8498 203.375 480.03125 C 202.34359 481.58841 201.89042 481.95572 176.34375 500.5 C 164.77675 508.89646 154.91653 516.16412 154.4375 516.65625 C 153.95847 517.14838 153.35568 518.10424 153.125 518.78125 C 152.68533 520.07162 152.55767 522.68495 152.9375 522.53125 C 153.05899 522.48205 163.87273 514.66794 176.96875 505.15625 C 208.66256 482.13693 209.25652 481.70508 210.3125 480.125 C 211.91862 477.72174 211.24656 475.22234 208.40625 472.90625 C 205.26587 470.34545 162.53816 439.57343 161.15625 438.875 C 160.03582 438.30872 158.93753 437.98078 157.9375 437.90625 z "
       style="fill:#c0f000;fill-opacity:1"
       id="path3045-1-1-7-2-7"
       d="m 157.9375,437.90625 c -1.00003,-0.0745 -1.88374,0.0967 -2.53125,0.53125 -1.17669,0.7896 -2.09904,2.59922 -2.4375,4.8125 -0.1609,1.05208 -0.23236,12.72324 -0.1875,30.34375 l 0.0625,28.59375 4.21875,-3.0625 c 4.28709,-3.13719 5.26774,-4.09171 5.8125,-5.71875 0.21507,-0.64237 0.31106,-5.88874 0.3125,-17.71875 0.001,-9.2316 0.10645,-17.81378 0.25,-19.0625 0.7623,-6.63096 4.28891,-7.84723 10.46875,-3.65625 3.77719,2.56158 27.38272,19.84437 28.25,20.6875 2.30165,2.23757 2.66369,4.19355 1.21875,6.375 -1.03141,1.55716 -1.48458,1.92447 -27.03125,20.46875 -11.567,8.39646 -21.42722,15.66412 -21.90625,16.15625 -0.47903,0.49213 -1.08182,1.44799 -1.3125,2.125 -0.43967,1.29037 -0.56733,3.9037 -0.1875,3.75 0.12149,-0.0492 10.93523,-7.86331 24.03125,-17.375 31.69381,-23.01932 32.28777,-23.45117 33.34375,-25.03125 1.60612,-2.40326 0.93406,-4.90266 -1.90625,-7.21875 -3.14038,-2.5608 -45.86809,-33.33282 -47.25,-34.03125 -1.12043,-0.56628 -2.21872,-0.89422 -3.21875,-0.96875 z" />
    <path
       style="font-style:normal;font-variant:normal;font-weight:normal;font-stretch:normal;font-size:78.20436859px;line-height:125%;font-family:'Neuropolitical Rg';-inkscape-font-specification:'Neuropolitical Rg';letter-spacing:0px;word-spacing:0px;fill:#000000;fill-opacity:1;stroke:none"
       d="m 576.48012,249.34624 c -1.37649,-0.013 -1.66838,0.29615 -1.3837,0.0404 0.2477,-0.22243 0.11057,-0.3636 0.12203,0.61039 8e-5,0.013 8e-5,0.0273 0,0.0404 l 0,5.94174 c 8e-5,0.013 8e-5,0.0274 0,0.0404 -0.0117,0.97998 0.14139,0.86199 -0.0406,0.69191 -0.22776,-0.21292 0.0271,0.0873 1.34299,0.0807 l 5.00571,0 c 1.37724,0 1.77966,-0.3748 1.50579,-0.12241 -0.19218,0.17711 -0.0684,0.3399 -0.0814,-0.65115 -6e-5,-0.013 -6e-5,-0.0274 0,-0.0404 l 0,-5.94174 c -6e-5,-0.013 -6e-5,-0.0274 0,-0.0404 0.013,-0.98506 -0.13536,-0.79792 0.12203,-0.56976 0.3321,0.29419 -0.0675,-0.0912 -1.50579,-0.0807 -0.0135,0 -0.0271,0 -0.0406,0 l -5.00571,0 c -0.0135,0 -0.0271,0 -0.0406,0 z m -391.84646,18.31357 0,27.51106 c 2.9e-4,0.0274 2.9e-4,0.0547 0,0.0807 -0.16409,8.06605 1.58655,12.97454 4.35456,15.58682 2.67065,2.52047 8.65243,4.41088 18.23218,4.31386 0.0135,0 0.0271,0 0.0406,0 l 17.9066,0 c 0.0136,0 0.0271,0 0.0406,0 9.68186,0.0964 15.75753,-1.80016 18.43567,-4.31386 2.78016,-2.60955 4.52261,-7.51661 4.35456,-15.58682 -2.9e-4,-0.0274 -2.9e-4,-0.0547 0,-0.0807 l 0,-27.51106 -7.32543,0 0,27.0227 c 6.5e-4,0.03 -5.9e-4,0.0521 0,0.0807 0.10015,5.04654 -0.6764,9.27275 -3.8662,12.04626 -3.0962,2.69185 -7.22687,3.25028 -12.45323,3.13359 -0.0301,-6.5e-4 -0.0513,7.8e-4 -0.0814,0 l -15.70898,0 c -0.0298,7.8e-4 -0.0517,-6.5e-4 -0.0814,0 -4.98746,0.1159 -9.05469,-0.54267 -12.12765,-3.0522 -3.33804,-2.72597 -4.21419,-7.0466 -4.15108,-12.12765 l 0,-0.0404 0,-27.06346 -7.56961,0 z m 92.35852,0 c -9.58155,-0.099 -15.56353,1.78806 -18.23218,4.31387 -2.75854,2.61085 -4.47831,7.53796 -4.31385,15.66821 2.9e-4,0.0274 2.9e-4,0.0547 0,0.0807 l 0,7.44759 c 2.9e-4,0.0274 2.9e-4,0.0547 0,0.0807 -0.16433,8.07816 1.55564,12.98378 4.31385,15.58682 2.67065,2.52047 8.65244,4.41088 18.23218,4.31386 0.0136,0 0.0271,0 0.0406,0 l 18.43566,0 c 0.0135,0 0.0271,0 0.0406,0 9.63071,0.0964 15.68471,-1.80134 18.35426,-4.31386 2.77404,-2.61085 4.52059,-7.51869 4.35456,-15.58682 -2.8e-4,-0.0274 -2.8e-4,-0.0547 0,-0.0807 l 0,-7.32543 c -2.8e-4,-0.0274 -2.8e-4,-0.0547 0,-0.0807 0.1663,-8.17232 -1.59021,-13.17353 -4.35456,-15.79037 -2.66554,-2.52321 -8.71996,-4.41492 -18.35426,-4.31387 -0.0136,0 -0.0271,0 -0.0406,0 l -18.43566,0 c -0.0135,0 -0.0271,0 -0.0406,0 z m 71.38223,0 c -9.58154,-0.099 -15.56353,1.78806 -18.23218,4.31387 -2.76832,2.62009 -4.51879,7.54994 -4.35456,15.66821 2.9e-4,0.0274 2.9e-4,0.0547 0,0.0807 l 0,27.42966 7.44752,0 0,-26.81914 c -5.6e-4,-0.0299 5e-4,-0.0521 0,-0.0807 -0.084,-4.96697 0.72245,-9.23616 3.8662,-12.04626 3.07809,-2.7515 7.23594,-3.31331 12.33114,-3.21512 l 0.0814,0 16.31943,0 0.0814,0 c 5.17518,-0.099 9.36927,0.43953 12.45323,3.25575 3.10203,2.83315 3.84221,7.05168 3.74411,12.00563 -5.9e-4,0.0299 6.4e-4,0.0521 0,0.0807 l 0,26.81914 7.44752,0 0,-27.42966 c -2.9e-4,-0.0273 -2.9e-4,-0.0547 0,-0.0807 0.16617,-8.12035 -1.58022,-13.04955 -4.35456,-15.66821 -2.67727,-2.52711 -8.68095,-4.41297 -18.31357,-4.31387 -0.0136,0 -0.0271,0 -0.0406,0 l -18.43567,0 c -0.0135,0 -0.0271,0 -0.0406,0 z m 83.74244,0 0,3.09296 11.11023,0 0.0814,0 c 3.7922,-0.0703 7.15598,0.51558 9.72654,2.72663 2.76655,2.38008 3.52852,5.99656 3.49992,9.97078 -1e-4,0.0143 1.2e-4,0.026 0,0.0404 l 0,1.18015 c 0.007,2.02624 -1.84001,3.8729 -3.86619,3.86626 l -40.81892,0 c -7.04562,0.026 -11.25881,1.48058 -12.69741,2.80802 -1.8318,1.69038 -2.73524,3.89465 -2.6046,7.77315 6.5e-4,0.0404 6.5e-4,0.0807 0,0.12242 l 0,5.20919 c 6.5e-4,0.0404 6.5e-4,0.0807 0,0.12242 -0.12371,3.66675 0.79689,5.79536 2.84878,7.61024 1.6379,1.44868 6.13818,2.92041 13.47065,2.97093 0.0165,0 0.0241,-1.3e-4 0.0406,0 l 29.79008,0 c 0.0135,-1.3e-4 0.0271,-1.3e-4 0.0406,0 9.15802,0.10289 14.88177,-1.61315 17.29615,-3.7441 2.48753,-2.19581 4.10804,-6.43883 3.94759,-13.7149 -2.8e-4,-0.0273 -2.8e-4,-0.0547 0,-0.0807 l 0,-13.42995 c -6e-5,-0.013 -6e-5,-0.0274 0,-0.0404 0.0705,-6.2862 -1.49328,-10.07537 -4.31386,-12.49386 -2.76192,-2.36823 -8.1204,-4.01629 -16.36012,-3.98829 l -11.19163,0 z m 57.39997,0 c -6.61682,-0.0208 -10.54795,1.46952 -12.53462,3.58133 -2.10011,2.2324 -3.45721,6.13291 -3.37784,12.29044 7e-5,0.013 7e-5,0.0273 0,0.0404 l 0,31.58073 7.04055,0 0,-29.30171 c -1.1e-4,-0.0143 1.1e-4,-0.026 0,-0.0404 -0.0269,-3.83853 0.56369,-7.23101 3.01157,-9.72661 2.338,-2.38346 5.67477,-3.14336 9.19748,-3.09296 l 0.0814,0 9.56375,0 0.0406,0 c 4.93312,-0.0482 8.76425,0.30565 11.76138,2.88954 2.76995,2.38829 3.60828,6.06298 3.49993,9.93003 -10e-4,0.0417 10e-4,0.0794 0,0.12241 l 0,29.22032 5.61616,0 0,-29.22032 0,-0.12241 c -0.0905,-3.92018 0.89949,-7.58889 3.66272,-9.93003 2.94208,-2.49286 6.70969,-2.9372 11.5172,-2.88954 l 0.0406,0 9.76724,0 0.0814,0 c 3.45253,-0.0508 6.74696,0.74609 9.07539,3.05233 2.50372,2.48023 3.15067,5.89459 3.13366,9.76724 l 0,29.34234 7.12194,0 0,-31.58073 c -7e-5,-0.013 -7e-5,-0.0273 0,-0.0404 0.0794,-6.1729 -1.24889,-10.07055 -3.33714,-12.29044 -1.98681,-2.11181 -5.91791,-3.60268 -12.53462,-3.58133 l -13.75552,0 c -4.99501,0 -8.42969,0.82696 -10.21491,1.87206 -1.90876,1.11737 -3.02832,2.52242 -3.70341,4.96501 -0.44924,1.59623 -2.02996,2.8002 -3.68811,2.80932 -1.65815,0.013 -3.25199,-1.17754 -3.71871,-2.76869 -0.70833,-2.48061 -1.80125,-3.93776 -3.66272,-5.0464 -1.69676,-1.01046 -5.20156,-1.8352 -10.33699,-1.8313 l -13.34856,0 z m 122.63117,0 c -9.58156,-0.099 -15.56354,1.78806 -18.23218,4.31387 -2.75856,2.61085 -4.47833,7.53796 -4.31387,15.66821 2.9e-4,0.0274 2.9e-4,0.0547 0,0.0807 l 0,7.44759 c 2.9e-4,0.0274 2.9e-4,0.0547 0,0.0807 -0.16433,8.07816 1.55564,12.98378 4.31387,15.58682 2.67066,2.52047 8.65242,4.41088 18.23218,4.31386 0.0135,0 0.0271,0 0.0406,0 l 36.17948,0 0,-5.1278 -35.60973,0 c -0.0148,2.6e-4 -0.0259,-2.6e-4 -0.0406,0 -5.0797,0.0742 -9.2325,-0.57861 -12.16835,-3.54056 -2.83575,-2.86102 -3.60059,-6.93916 -3.49993,-11.72068 l 0,-0.0807 0,-6.34871 c -7e-4,-0.0299 6.6e-4,-0.0521 0,-0.0807 -0.10796,-4.8917 0.58352,-8.96763 3.49993,-11.84284 2.96165,-2.91976 7.08747,-3.51022 12.16835,-3.41854 l 0.0814,0 35.44693,0 0,-5.33122 -36.05739,0 c -0.0135,0 -0.0271,0 -0.0406,0 z m -36.92948,1.42433 0,46.0688 7.7324,0 0,-46.0688 z m -298.10424,3.90689 c 0.63196,-0.013 1.27332,-0.013 1.95345,0 0.0284,5.2e-4 0.0529,-6.5e-4 0.0814,0 l 14.20319,0 c 0.0306,-6.5e-4 0.0509,6.5e-4 0.0814,0 5.6959,-0.11199 10.04526,0.30266 13.34856,3.09296 3.28154,2.7722 4.11307,7.11237 3.98829,12.16842 -10e-4,0.0443 0.001,0.0781 0,0.12241 l 0,6.26732 c 0.001,0.0443 -10e-4,0.0781 0,0.12241 0.1245,4.97895 -0.73809,9.30961 -3.9476,12.08689 -3.28607,2.84331 -7.68241,3.27268 -13.38925,3.17436 -0.0303,-5.3e-4 -0.0509,5.2e-4 -0.0814,0 l -14.20319,0 c -0.0303,5.2e-4 -0.0512,-5.3e-4 -0.0814,0 -5.62063,0.0977 -9.9788,-0.37689 -13.22647,-3.17436 -3.23045,-2.78249 -4.06305,-7.12044 -3.94759,-12.08689 l 0,-0.12241 0,-6.30808 c -7.7e-4,-0.03 7e-4,-0.0521 0,-0.0807 -0.12124,-5.06229 0.67641,-9.38332 3.98829,-12.16829 2.89277,-2.43256 6.60239,-2.99789 11.23232,-3.09295 z m 136.36343,18.48965 0.0814,0 39.10965,0 c 2.02618,-0.013 3.87297,1.84001 3.86619,3.86613 l 0,4.72083 c 0.024,4.53356 -0.71827,7.13438 -3.8255,9.67269 -2.71435,2.21716 -6.2351,2.82885 -10.2149,2.72662 -0.0431,-10e-4 -0.0789,10e-4 -0.12203,0 l -28.36568,0 c -0.0137,1.3e-4 -0.027,-1.3e-4 -0.0406,0 -2.45768,0.026 -4.84969,-0.42806 -6.83706,-1.87205 -2.27449,-1.65249 -3.19197,-4.52275 -3.21505,-7.12188 -7e-5,-0.013 -7e-5,-0.0274 0,-0.0404 l 0,-2.46929 c -7e-5,-0.013 -7e-5,-0.0274 0,-0.0404 0.0189,-2.72975 0.65275,-5.50638 2.93017,-7.36619 1.85549,-1.51522 4.23679,-2.11532 6.63358,-2.07547 z"
       id="path3059-5-1-2-4"
       inkscape:connector-curvature="0"
       sodipodi:nodetypes="cccccccccccccccccccccccscccccccccccccccccccccccsccccscccccccccccccccsccccccscccccccccccccccccccccccccccsccccscccccccccccccccccccccscccccccccccscccccccccccccscsccccccsccccscccccccccccsccccccccccccccccscccccccccccccccscccccccccccccccccscc" />
    <path
       transform="matrix(1.3022984,0,0,1.3022984,-70.477562,-355.21734)"
       sodipodi:type="inkscape:offset"
       inkscape:radius="0"
       inkscape:original="M 157.9375 437.90625 C 156.93747 437.83172 156.05376 438.00299 155.40625 438.4375 C 154.22956 439.2271 153.30721 441.03672 152.96875 443.25 C 152.80785 444.30208 152.73639 455.97324 152.78125 473.59375 L 152.84375 502.1875 L 157.0625 499.125 C 161.34959 495.98781 162.33024 495.03329 162.875 493.40625 C 163.09007 492.76388 163.18606 487.51751 163.1875 475.6875 C 163.1885 466.4559 163.29395 457.87372 163.4375 456.625 C 164.1998 449.99404 167.72641 448.77777 173.90625 452.96875 C 177.68344 455.53033 201.28897 472.81312 202.15625 473.65625 C 204.4579 475.89382 204.81994 477.8498 203.375 480.03125 C 202.34359 481.58841 201.89042 481.95572 176.34375 500.5 C 164.77675 508.89646 154.91653 516.16412 154.4375 516.65625 C 153.95847 517.14838 153.35568 518.10424 153.125 518.78125 C 152.68533 520.07162 152.55767 522.68495 152.9375 522.53125 C 153.05899 522.48205 163.87273 514.66794 176.96875 505.15625 C 208.66256 482.13693 209.25652 481.70508 210.3125 480.125 C 211.91862 477.72174 211.24656 475.22234 208.40625 472.90625 C 205.26587 470.34545 162.53816 439.57343 161.15625 438.875 C 160.03582 438.30872 158.93753 437.98078 157.9375 437.90625 z "
       style="fill:#000000;fill-opacity:1"
       id="path3045-1-1-7-2"
       d="m 157.9375,437.90625 c -1.00003,-0.0745 -1.88374,0.0967 -2.53125,0.53125 -1.17669,0.7896 -2.09904,2.59922 -2.4375,4.8125 -0.1609,1.05208 -0.23236,12.72324 -0.1875,30.34375 l 0.0625,28.59375 4.21875,-3.0625 c 4.28709,-3.13719 5.26774,-4.09171 5.8125,-5.71875 0.21507,-0.64237 0.31106,-5.88874 0.3125,-17.71875 0.001,-9.2316 0.10645,-17.81378 0.25,-19.0625 0.7623,-6.63096 4.28891,-7.84723 10.46875,-3.65625 3.77719,2.56158 27.38272,19.84437 28.25,20.6875 2.30165,2.23757 2.66369,4.19355 1.21875,6.375 -1.03141,1.55716 -1.48458,1.92447 -27.03125,20.46875 -11.567,8.39646 -21.42722,15.66412 -21.90625,16.15625 -0.47903,0.49213 -1.08182,1.44799 -1.3125,2.125 -0.43967,1.29037 -0.56733,3.9037 -0.1875,3.75 0.12149,-0.0492 10.93523,-7.86331 24.03125,-17.375 31.69381,-23.01932 32.28777,-23.45117 33.34375,-25.03125 1.60612,-2.40326 0.93406,-4.90266 -1.90625,-7.21875 -3.14038,-2.5608 -45.86809,-33.33282 -47.25,-34.03125 -1.12043,-0.56628 -2.21872,-0.89422 -3.21875,-0.96875 z" />
  </g>
</svg>
