<?xml version="1.0" encoding="UTF-8" standalone="no"?>
<!-- Created with Inkscape (http://www.inkscape.org/) -->

<svg
   xmlns:dc="http://purl.org/dc/elements/1.1/"
   xmlns:cc="http://creativecommons.org/ns#"
   xmlns:rdf="http://www.w3.org/1999/02/22-rdf-syntax-ns#"
   xmlns:svg="http://www.w3.org/2000/svg"
   xmlns="http://www.w3.org/2000/svg"
   xmlns:sodipodi="http://sodipodi.sourceforge.net/DTD/sodipodi-0.dtd"
   xmlns:inkscape="http://www.inkscape.org/namespaces/inkscape"
   width="345.621"
   height="161.81935"
   viewBox="0 0 345.621 161.81936"
   id="svg2"
   version="1.1"
   inkscape:version="0.91 r13725"
   sodipodi:docname="logo_white.svg">
  <defs
     id="defs4">
    <filter
       id="filter3993"
       inkscape:label="Drop Shadow"
       style="color-interpolation-filters:sRGB">
      <feFlood
         id="feFlood3995"
         flood-opacity="0.5"
         flood-color="rgb(0,0,0)"
         result="flood" />
      <feComposite
         id="feComposite3997"
         in2="SourceGraphic"
         in="flood"
         operator="in"
         result="composite1" />
      <feGaussianBlur
         id="feGaussianBlur3999"
         stdDeviation="20"
         result="blur" />
      <feOffset
         id="feOffset4001"
         dx="4"
         dy="4"
         result="offset" />
      <feComposite
         id="feComposite4003"
         in2="offset"
         in="SourceGraphic"
         operator="over"
         result="composite2" />
    </filter>
    <clipPath
       id="clipPath4558"
       clipPathUnits="userSpaceOnUse">
      <path
         inkscape:connector-curvature="0"
         id="path4560"
         d="M 0,500 1024,500 1024,0 0,0 0,500 Z" />
    </clipPath>
    <clipPath
       clipPathUnits="userSpaceOnUse"
       id="clipPath4085">
      <rect
         style="fill:#cccccc"
         id="rect4087"
         width="290.57669"
         height="315.98834"
         x="-462.93396"
         y="827.70447" />
    </clipPath>
    <clipPath
       clipPathUnits="userSpaceOnUse"
       id="clipPath4050">
      <rect
         style="fill:#000000"
         id="rect4052"
         width="224.28543"
         height="361.28738"
         x="181.19611"
         y="541.54724" />
    </clipPath>
    <clipPath
       clipPathUnits="userSpaceOnUse"
       id="clipPath3557">
      <rect
         style="opacity:1;fill:#808080;fill-opacity:1;stroke:none"
         id="rect3559"
         width="270.16397"
         height="240.97957"
         x="144.12396"
         y="-712.71497"
         transform="scale(1,-1)" />
    </clipPath>
    <filter
       id="filter3993-8"
       inkscape:label="Drop Shadow"
       style="color-interpolation-filters:sRGB">
      <feFlood
         id="feFlood3995-6"
         flood-opacity="0.5"
         flood-color="rgb(0,0,0)"
         result="flood" />
      <feComposite
         id="feComposite3997-1"
         in2="SourceGraphic"
         in="flood"
         operator="in"
         result="composite1" />
      <feGaussianBlur
         id="feGaussianBlur3999-3"
         stdDeviation="20"
         result="blur" />
      <feOffset
         id="feOffset4001-6"
         dx="4"
         dy="4"
         result="offset" />
      <feComposite
         id="feComposite4003-3"
         in2="offset"
         in="SourceGraphic"
         operator="over"
         result="composite2" />
    </filter>
    <pattern
       y="0"
       x="0"
       height="6"
       width="6"
       patternUnits="userSpaceOnUse"
       id="EMFhbasepattern" />
  </defs>
  <sodipodi:namedview
     id="base"
     pagecolor="#ffffff"
     bordercolor="#666666"
     borderopacity="1.0"
     inkscape:pageopacity="0.0"
     inkscape:pageshadow="2"
     inkscape:zoom="0.24748737"
     inkscape:cx="-714.92754"
     inkscape:cy="354.19253"
     inkscape:document-units="px"
     inkscape:current-layer="layer3"
     showgrid="false"
     units="px"
     inkscape:window-width="3200"
     inkscape:window-height="1723"
     inkscape:window-x="-9"
     inkscape:window-y="171"
     inkscape:window-maximized="1"
     fit-margin-top="0"
     fit-margin-left="0"
     fit-margin-right="0"
     fit-margin-bottom="0" />
  <metadata
     id="metadata7">
    <rdf:RDF>
      <cc:Work
         rdf:about="">
        <dc:format>image/svg+xml</dc:format>
        <dc:type
           rdf:resource="http://purl.org/dc/dcmitype/StillImage" />
        <dc:title></dc:title>
      </cc:Work>
    </rdf:RDF>
  </metadata>
  <g
     inkscape:groupmode="layer"
     id="layer2"
     inkscape:label="Drop shadows"
     style="display:inline"
     transform="translate(-1543.5805,-6803.4006)" />
  <g
     inkscape:label="Layer 1"
     inkscape:groupmode="layer"
     id="layer1"
     transform="translate(-1543.5805,-762.43282)" />
  <g
     inkscape:groupmode="layer"
     id="layer3"
     inkscape:label="Footer"
     style="display:inline"
     transform="translate(-1543.5805,-6803.4006)">
    <path
       inkscape:connector-curvature="0"
       id="path4368-7"
       d="m 1553.6477,6803.4381 c -1.8946,-0.151 -3.5894,0.149 -4.8358,0.996 -2.2434,1.496 -3.9881,4.985 -4.6363,9.223 -0.2991,1.994 -0.4486,24.328 -0.3488,57.978 l 0.099,54.688 8.0762,-5.833 c 8.1756,-6.032 10.07,-7.827 11.1168,-10.968 0.3988,-1.196 0.5983,-11.266 0.5983,-33.849 0,-17.648 0.2002,-34.099 0.4486,-36.442 1.4457,-12.712 8.2257,-15.005 20.0405,-7.029 7.2287,4.935 52.3447,37.937 53.9899,39.582 4.3868,4.288 5.0849,8.027 2.3429,12.164 -1.9942,2.992 -2.8415,3.69 -51.6966,39.134 -22.0845,16.053 -40.9784,29.961 -41.8757,30.908 -0.8974,0.948 -2.0439,2.742 -2.4926,4.038 -0.8474,2.493 -1.0965,7.478 -0.349,7.179 0.2002,-0.1 20.8881,-15.006 45.9138,-33.201 60.6201,-44.02 61.7669,-44.867 63.7608,-47.858 3.091,-4.587 1.7947,-9.373 -3.6391,-13.81 -6.0322,-4.885 -87.6899,-63.71 -90.332,-65.056 -2.1438,-1.097 -4.2373,-1.695 -6.1815,-1.844 z"
       style="display:inline;fill:#c0f000;fill-opacity:1;fill-rule:nonzero;stroke:none" />
    <path
       inkscape:connector-curvature="0"
       id="path4370-2"
       d="m 1841.3935,6888.0361 c -0.8974,0 -1.0966,0.2 -0.8974,0.05 0.1484,-0.15 0.049,-0.249 0.099,0.399 0,0 0,0 0,0.05 l 0,3.938 c 0,0 0,0 0,0 -0.05,0.648 0.05,0.599 -0.05,0.449 -0.1484,-0.1 0,0.1 0.8974,0.1 l 3.3401,0 c 0.8974,0 1.1466,-0.25 0.997,-0.1 -0.1507,0.1 -0.05,0.199 -0.05,-0.449 0,0 0,0 0,0 l 0,-3.988 c 0,0 0,0 0,0 0,-0.648 -0.099,-0.549 0.05,-0.398 0.2494,0.199 -0.05,-0.05 -0.997,-0.05 l 0,0 -3.3401,0 -0.05,0 z m -260.427,12.164 0,18.296 c 0,0.05 0,0.05 0,0.05 -0.099,5.383 1.0469,8.624 2.8914,10.369 1.7448,1.695 5.7329,2.941 12.114,2.892 l 0,0 11.9146,0 0.049,0 c 6.4307,0.05 10.4687,-1.197 12.2634,-2.892 1.8446,-1.745 2.9912,-4.986 2.8915,-10.369 0,0 0,0 0,-0.05 l 0,-18.296 -4.8857,0 0,17.997 c 0,0 0,0 0,0.05 0.049,3.341 -0.4486,6.132 -2.5921,7.977 -2.0441,1.795 -4.7859,2.194 -8.2754,2.094 0,0 0,0 -0.05,0 l -10.4191,0 c -0.049,0 -0.049,0 -0.049,0 -3.3399,0.1 -6.0319,-0.349 -8.0758,-1.994 -2.1936,-1.845 -2.7919,-4.687 -2.742,-8.077 l 0,-0.05 0,-17.997 -5.0349,0 z m 61.3678,0 c -6.381,-0.05 -10.3194,1.197 -12.1141,2.892 -1.8446,1.744 -2.9911,4.985 -2.8416,10.419 0,0 0,0.05 0,0.05 l 0,4.936 c 0,0.05 0,0.05 0,0.05 -0.1483,5.384 0.997,8.624 2.8416,10.369 1.7947,1.695 5.7331,2.941 12.1141,2.891 l 0.05,0 12.2637,0 0,0 c 6.4309,0.05 10.419,-1.196 12.2137,-2.891 1.8447,-1.745 2.9912,-4.985 2.8915,-10.369 0,0 0,0 0,-0.05 l 0,-4.836 c 0,-0.05 0,-0.05 0,-0.05 0.099,-5.434 -1.0468,-8.775 -2.8915,-10.519 -1.7947,-1.695 -5.7828,-2.942 -12.2137,-2.892 l 0,0 -12.2637,0 -0.05,0 z m 47.4589,0 c -6.381,-0.05 -10.3694,1.197 -12.1134,2.892 -1.8447,1.744 -2.9912,5.035 -2.8916,10.419 0,0 0,0.05 0,0.05 l 0,18.247 4.9347,0 0,-17.847 c 0,0 0,-0.06 0,-0.06 -0.05,-3.29 0.4986,-6.131 2.5924,-8.026 2.0439,-1.794 4.7859,-2.193 8.1757,-2.093 l 0.05,0 10.8677,0 0.049,0 c 3.4398,-0.1 6.2315,0.249 8.2757,2.143 2.0438,1.895 2.5424,4.686 2.4925,7.976 0,0 0,0.06 0,0.06 l 0,17.847 4.9354,0 0,-18.247 c 0,0 0,-0.05 0,-0.05 0.099,-5.384 -1.0469,-8.675 -2.8916,-10.419 -1.7946,-1.695 -5.7827,-2.942 -12.1638,-2.892 l -0.05,0 -12.2138,0 -0.049,0 z m 55.6852,0 0,2.094 7.378,0 0.05,0 c 2.4925,-0.05 4.7359,0.349 6.431,1.795 1.8445,1.595 2.3929,3.988 2.3429,6.63 0,0 0,0 0,0.05 l 0,0.748 c 0,1.346 -1.1964,2.592 -2.5425,2.592 l -27.1694,0 c -4.6862,0 -7.4778,0.997 -8.4252,1.844 -1.1964,1.147 -1.7946,2.593 -1.7447,5.185 0,0 0,0.05 0,0.1 l 0,3.44 c 0,0.05 0,0.05 0,0.1 -0.05,2.442 0.5483,3.838 1.8943,5.034 1.0968,0.947 4.088,1.945 8.9734,1.995 0,0 0,0 0,0 l 19.8414,0 c 0,0 0,0 0,0 6.082,0.05 9.9205,-1.097 11.516,-2.493 1.6451,-1.446 2.7416,-4.287 2.5921,-9.123 0,0 0,-0.05 0,-0.05 l 0,-8.924 c 0,0 0,-0.05 0,-0.05 0.05,-4.188 -0.947,-6.68 -2.8416,-8.276 -1.8444,-1.595 -5.3841,-2.692 -10.8677,-2.692 l -7.4279,0 z m 38.1363,0 c -4.3871,0 -7.0291,0.997 -8.3255,2.393 -1.3957,1.496 -2.2931,4.088 -2.2433,8.175 0,0 0,0 0,0.05 l 0,20.988 4.6862,0 0,-19.493 c 0,0 0,0 0,-0.05 -0.049,-2.543 0.349,-4.787 1.9941,-6.431 1.5453,-1.596 3.739,-2.094 6.0819,-2.044 l 0.05,0 6.3811,0 0.049,0 c 3.2406,-0.05 5.7831,0.199 7.777,1.894 1.8447,1.596 2.3929,4.038 2.3433,6.581 0,0.05 0,0.1 0,0.1 l 0,19.443 3.7389,0 0,-19.443 0,-0.1 c -0.05,-2.593 0.5982,-5.036 2.4426,-6.581 1.9442,-1.645 4.437,-1.944 7.6274,-1.894 l 0.05,0 6.4809,0 0.049,0 c 2.2933,-0.05 4.4867,0.498 6.0322,1.994 1.6951,1.645 2.0938,3.938 2.0938,6.481 l 0,19.542 4.7359,0 0,-20.988 c 0,-0.05 0,-0.05 0,-0.05 0.049,-4.088 -0.8475,-6.68 -2.2434,-8.176 -1.2961,-1.396 -3.9381,-2.393 -8.3252,-2.393 l -9.123,0 c -3.3402,0 -5.6333,0.599 -6.78,1.246 -1.2961,0.748 -2.0439,1.695 -2.4926,3.341 -0.2991,1.047 -1.346,1.844 -2.4428,1.844 -1.0966,0 -2.1435,-0.797 -2.4426,-1.844 -0.4986,-1.646 -1.1965,-2.593 -2.4428,-3.341 -1.1466,-0.698 -3.4898,-1.246 -6.8797,-1.246 l -8.8738,0 z m 81.5079,0 c -6.381,-0.05 -10.3686,1.197 -12.1134,2.892 -1.8446,1.744 -2.9911,4.985 -2.8915,10.419 0,0 0,0.05 0,0.05 l 0,4.936 c 0,0.05 0,0.05 0,0.05 -0.099,5.384 1.0469,8.624 2.8915,10.369 1.7448,1.695 5.7324,2.941 12.1134,2.891 l 0.05,0 24.0289,0 0,-3.439 -23.68,0 c 0,0 0,0 0,0 -3.3899,0.05 -6.1815,-0.349 -8.1251,-2.343 -1.8446,-1.895 -2.3929,-4.587 -2.2933,-7.778 l 0,-0.05 0,-4.237 c 0,0 0,-0.06 0,-0.06 -0.099,-3.24 0.3491,-5.982 2.2933,-7.876 1.9933,-1.944 4.7352,-2.343 8.1251,-2.243 l 0.05,0 23.5304,0 0,-3.59 -23.9292,0 -0.05,0 z m -24.5266,0.948 0,30.659 5.1346,0 0,-30.659 z m -198.1621,2.642 c 0.399,-0.05 0.8477,-0.05 1.2963,0 0,0 0.05,0 0.05,0 l 9.422,0 c 0.05,0 0.05,0 0.05,0 3.7888,-0.1 6.6801,0.199 8.8738,2.043 2.1934,1.845 2.7417,4.737 2.692,8.076 0,0.06 0,0.06 0,0.1 l 0,4.138 c 0,0.05 0,0.05 0,0.1 0.05,3.291 -0.4986,6.183 -2.6424,8.027 -2.1934,1.895 -5.0849,2.193 -8.9234,2.093 0,0 0,0 -0.05,0 l -9.422,0 c 0,0 -0.05,0 -0.05,0 -3.7388,0.1 -6.6304,-0.249 -8.7741,-2.093 -2.1934,-1.844 -2.7417,-4.736 -2.6421,-8.027 l 0,-0.1 0,-4.188 c 0,0 0,-0.05 0,-0.05 -0.099,-3.34 0.4487,-6.232 2.6421,-8.076 1.9443,-1.646 4.3871,-1.995 7.4778,-2.044 z m 90.6312,12.263 0.05,0 26.0229,0 c 1.346,0 2.5425,1.246 2.5425,2.593 l 0,3.141 c 0,2.99 -0.4487,4.735 -2.5425,6.43 -1.7947,1.446 -4.1376,1.844 -6.7798,1.795 -0.05,0 -0.05,0 -0.099,0 l -18.8442,0 c 0,0 0,0 0,0 -1.6451,0 -3.2403,-0.3 -4.5863,-1.246 -1.4956,-1.097 -2.0938,-2.991 -2.0938,-4.737 0,0 0,0 0,-0.05 l 0,-1.595 c 0,-0.05 0,-0.05 0,-0.05 0,-1.795 0.3988,-3.64 1.9442,-4.886 1.1965,-0.997 2.7917,-1.396 4.3871,-1.396 z"
       style="display:inline;fill:#ffffff;fill-opacity:1;fill-rule:nonzero;stroke:none" />
    <path
       inkscape:connector-curvature="0"
       id="path4372-5"
       d="m 1548.114,6865.2541 c -0.8973,-0.05 -1.6451,0.1 -2.1936,0.449 -1.0469,0.698 -1.8444,2.293 -2.1435,4.187 -0.099,0.897 -0.2002,11.017 -0.1484,26.272 l 0.05,24.727 3.689,-2.643 c 3.689,-2.691 4.5364,-3.539 4.9852,-4.935 0.2001,-0.548 0.299,-5.085 0.299,-15.354 0,-7.977 0.099,-15.405 0.2003,-16.502 0.6481,-5.732 3.7389,-6.78 9.073,-3.14 3.2902,2.194 23.6797,17.149 24.4772,17.897 1.9941,1.944 2.2933,3.639 1.0469,5.534 -0.8973,1.346 -1.2961,1.644 -23.4303,17.697 -10.0203,7.279 -18.5451,13.56 -18.9439,14.008 -0.3987,0.4 -0.9472,1.247 -1.1465,1.846 -0.349,1.096 -0.4985,3.339 -0.1483,3.239 0.099,-0.05 9.4718,-6.829 20.7882,-15.055 27.4685,-19.941 27.9669,-20.289 28.8642,-21.686 1.396,-2.044 0.7977,-4.237 -1.6451,-6.232 -2.692,-2.193 -39.6821,-28.864 -40.8785,-29.462 -0.997,-0.498 -1.9443,-0.747 -2.7917,-0.847 z"
       style="display:inline;fill:#ffffff;fill-opacity:1;fill-rule:nonzero;stroke:none" />
  </g>
</svg>
