<?xml version="1.0" encoding="UTF-8" standalone="no"?>
<!-- Created with Inkscape (http://www.inkscape.org/) -->

<svg
   xmlns:dc="http://purl.org/dc/elements/1.1/"
   xmlns:cc="http://creativecommons.org/ns#"
   xmlns:rdf="http://www.w3.org/1999/02/22-rdf-syntax-ns#"
   xmlns:svg="http://www.w3.org/2000/svg"
   xmlns="http://www.w3.org/2000/svg"
   xmlns:sodipodi="http://sodipodi.sourceforge.net/DTD/sodipodi-0.dtd"
   xmlns:inkscape="http://www.inkscape.org/namespaces/inkscape"
   width="108.353"
   height="108.353"
   viewBox="0 0 108.353 108.353"
   id="svg2"
   version="1.1"
   inkscape:version="0.91 r13725"
   sodipodi:docname="004.svg">
  <defs
     id="defs4">
    <filter
       id="filter3993"
       inkscape:label="Drop Shadow"
       style="color-interpolation-filters:sRGB">
      <feFlood
         id="feFlood3995"
         flood-opacity="0.5"
         flood-color="rgb(0,0,0)"
         result="flood" />
      <feComposite
         id="feComposite3997"
         in2="SourceGraphic"
         in="flood"
         operator="in"
         result="composite1" />
      <feGaussianBlur
         id="feGaussianBlur3999"
         stdDeviation="20"
         result="blur" />
      <feOffset
         id="feOffset4001"
         dx="4"
         dy="4"
         result="offset" />
      <feComposite
         id="feComposite4003"
         in2="offset"
         in="SourceGraphic"
         operator="over"
         result="composite2" />
    </filter>
    <clipPath
       id="clipPath4558"
       clipPathUnits="userSpaceOnUse">
      <path
         inkscape:connector-curvature="0"
         id="path4560"
         d="M 0,500 1024,500 1024,0 0,0 0,500 Z" />
    </clipPath>
    <clipPath
       clipPathUnits="userSpaceOnUse"
       id="clipPath4085">
      <rect
         style="fill:#cccccc"
         id="rect4087"
         width="290.57669"
         height="315.98834"
         x="-462.93396"
         y="827.70447" />
    </clipPath>
    <clipPath
       clipPathUnits="userSpaceOnUse"
       id="clipPath4050">
      <rect
         style="fill:#000000"
         id="rect4052"
         width="224.28543"
         height="361.28738"
         x="181.19611"
         y="541.54724" />
    </clipPath>
    <clipPath
       clipPathUnits="userSpaceOnUse"
       id="clipPath3557">
      <rect
         style="opacity:1;fill:#808080;fill-opacity:1;stroke:none"
         id="rect3559"
         width="270.16397"
         height="240.97957"
         x="144.12396"
         y="-712.71497"
         transform="scale(1,-1)" />
    </clipPath>
    <filter
       id="filter3993-8"
       inkscape:label="Drop Shadow"
       style="color-interpolation-filters:sRGB">
      <feFlood
         id="feFlood3995-6"
         flood-opacity="0.5"
         flood-color="rgb(0,0,0)"
         result="flood" />
      <feComposite
         id="feComposite3997-1"
         in2="SourceGraphic"
         in="flood"
         operator="in"
         result="composite1" />
      <feGaussianBlur
         id="feGaussianBlur3999-3"
         stdDeviation="20"
         result="blur" />
      <feOffset
         id="feOffset4001-6"
         dx="4"
         dy="4"
         result="offset" />
      <feComposite
         id="feComposite4003-3"
         in2="offset"
         in="SourceGraphic"
         operator="over"
         result="composite2" />
    </filter>
    <pattern
       y="0"
       x="0"
       height="6"
       width="6"
       patternUnits="userSpaceOnUse"
       id="EMFhbasepattern" />
  </defs>
  <sodipodi:namedview
     id="base"
     pagecolor="#ffffff"
     bordercolor="#666666"
     borderopacity="1.0"
     inkscape:pageopacity="0.0"
     inkscape:pageshadow="2"
     inkscape:zoom="2.8"
     inkscape:cx="184.50316"
     inkscape:cy="40.123139"
     inkscape:document-units="px"
     inkscape:current-layer="layer2"
     showgrid="false"
     units="px"
     inkscape:window-width="1582"
     inkscape:window-height="1705"
     inkscape:window-x="0"
     inkscape:window-y="180"
     inkscape:window-maximized="0"
     fit-margin-top="0"
     fit-margin-left="0"
     fit-margin-right="0"
     fit-margin-bottom="0" />
  <metadata
     id="metadata7">
    <rdf:RDF>
      <cc:Work
         rdf:about="">
        <dc:format>image/svg+xml</dc:format>
        <dc:type
           rdf:resource="http://purl.org/dc/dcmitype/StillImage" />
        <dc:title></dc:title>
      </cc:Work>
    </rdf:RDF>
  </metadata>
  <g
     inkscape:groupmode="layer"
     id="layer2"
     inkscape:label="Drop shadows"
     style="display:inline"
     transform="translate(-459.6296,-6848.8671)" />
  <g
     inkscape:label="Layer 1"
     inkscape:groupmode="layer"
     id="layer1"
     transform="translate(-459.6296,-807.8993)" />
  <g
     inkscape:groupmode="layer"
     id="layer3"
     inkscape:label="Footer"
     style="display:inline"
     transform="translate(-459.6296,-6848.8671)">
    <path
       inkscape:connector-curvature="0"
       class="st0"
       d="m 554.43847,6957.2201 -81.26474,0 c -7.47636,0 -13.54413,-6.068 -13.54413,-13.544 l 0,-81.265 c 0,-7.476 6.06777,-13.544 13.54413,-13.544 l 81.26474,0 c 7.47636,0 13.54413,6.068 13.54413,13.544 l 0,81.265 c 0,7.476 -6.06777,13.544 -13.54413,13.544 z m -53.20132,-26.655 c 25.54422,0 39.52176,-21.183 39.52176,-39.522 0,-0.596 0,-1.191 -0.0271,-1.787 2.70883,-1.951 5.0655,-4.416 6.93459,-7.206 -2.49212,1.111 -5.17385,1.842 -7.99103,2.194 2.87135,-1.706 5.0655,-4.442 6.12194,-7.693 -2.68173,1.598 -5.66144,2.736 -8.83077,3.359 -2.54629,-2.709 -6.14903,-4.388 -10.131,-4.388 -7.66598,0 -13.89627,6.23 -13.89627,13.896 0,1.084 0.13544,2.14 0.35214,3.169 -11.53959,-0.568 -21.77895,-6.122 -28.63228,-14.519 -1.19188,2.059 -1.86909,4.443 -1.86909,6.989 0,4.822 2.46503,9.074 6.17612,11.567 -2.27541,-0.08 -4.41538,-0.705 -6.28447,-1.734 0,0.05 0,0.108 0,0.19 0,6.717 4.79462,12.352 11.13327,13.625 -1.16479,0.325 -2.38376,0.488 -3.65691,0.488 -0.89391,0 -1.76074,-0.08 -2.60047,-0.244 1.76073,5.526 6.9075,9.535 12.97527,9.643 -4.76753,3.738 -10.75404,5.96 -17.25522,5.96 -1.11062,0 -2.22123,-0.06 -3.30476,-0.19 6.12194,3.901 13.43577,6.203 21.26427,6.203"
       id="path4649"
       style="display:inline;fill:#ffffff" />
  </g>
</svg>
